<svg xmlns="http://www.w3.org/2000/svg" width="830" height="262" viewBox="0 0 830 262" role="img" aria-label="Tech stack">
<title>Tech stack</title>
<defs>
  <radialGradient id="glowP"><stop offset="0" stop-color="#8b5cf6" stop-opacity=".26"/><stop offset="1" stop-color="#8b5cf6" stop-opacity="0"/></radialGradient>
  <radialGradient id="glowT"><stop offset="0" stop-color="#14b8a6" stop-opacity=".20"/><stop offset="1" stop-color="#14b8a6" stop-opacity="0"/></radialGradient>
  <linearGradient id="bd" x1="0" y1="0" x2="1" y2="1">
    <stop offset="0" stop-color="#8b5cf6" stop-opacity=".45"/>
    <stop offset=".5" stop-color="#ffffff" stop-opacity=".07"/>
    <stop offset="1" stop-color="#14b8a6" stop-opacity=".45"/>
  </linearGradient>
  <linearGradient id="nameFill" x1="0" y1="0" x2="0" y2="1"><stop offset="0" stop-color="#ffffff"/><stop offset="1" stop-color="#c9d3ff"/></linearGradient>
  <clipPath id="clip"><rect x=".5" y=".5" width="829" height="261" rx="18"/></clipPath>
</defs>
<style>
  text{font-family:-apple-system,BlinkMacSystemFont,'Segoe UI',Helvetica,Arial,sans-serif}
  .mono{font-family:ui-monospace,SFMono-Regular,'SF Mono',Menlo,Consolas,'Liberation Mono',monospace}
  @media (prefers-reduced-motion: reduce){ .pulse{animation:none!important} }
</style>
<rect x=".5" y=".5" width="829" height="261" rx="18" fill="#0b0f15"/>
<g clip-path="url(#clip)">
  <circle cx="100" cy="5" r="332" fill="url(#glowP)"></circle>
  <circle cx="764" cy="257" r="299" fill="url(#glowT)"></circle>
</g>
<rect x=".5" y=".5" width="829" height="261" rx="18" fill="none" stroke="url(#bd)"/>
<text x="415.0" y="40" text-anchor="middle" font-size="10" font-weight="600" letter-spacing="3.6" fill="#6b7683">TECH STACK</text>
<rect x="184" y="72" width="87" height="30" rx="15.0" fill="#ffffff" fill-opacity=".045" stroke="#ffffff" stroke-opacity=".11"/>
<circle cx="203" cy="87.0" r="3.5" fill="#6aa9ff"/>
<text x="215" y="91.0" font-size="12" fill="#cbd5e1">Python</text>
<rect x="282" y="72" width="115" height="30" rx="15.0" fill="#ffffff" fill-opacity=".045" stroke="#ffffff" stroke-opacity=".11"/>
<circle cx="301" cy="87.0" r="3.5" fill="#f7df1e"/>
<text x="313" y="91.0" font-size="12" fill="#cbd5e1">JavaScript</text>
<rect x="406" y="72" width="66" height="30" rx="15.0" fill="#ffffff" fill-opacity=".045" stroke="#ffffff" stroke-opacity=".11"/>
<circle cx="425" cy="87.0" r="3.5" fill="#5aa0d0"/>
<text x="437" y="91.0" font-size="12" fill="#cbd5e1">SQL</text>
<rect x="482" y="72" width="80" height="30" rx="15.0" fill="#ffffff" fill-opacity=".045" stroke="#ffffff" stroke-opacity=".11"/>
<circle cx="501" cy="87.0" r="3.5" fill="#e34f26"/>
<text x="513" y="91.0" font-size="12" fill="#cbd5e1">HTML5</text>
<rect x="572" y="72" width="73" height="30" rx="15.0" fill="#ffffff" fill-opacity=".045" stroke="#ffffff" stroke-opacity=".11"/>
<circle cx="591" cy="87.0" r="3.5" fill="#2d9cdb"/>
<text x="603" y="91.0" font-size="12" fill="#cbd5e1">CSS3</text>
<rect x="46" y="114" width="94" height="30" rx="15.0" fill="#ffffff" fill-opacity=".045" stroke="#ffffff" stroke-opacity=".11"/>
<circle cx="65" cy="129.0" r="3.5" fill="#14b8a6"/>
<text x="77" y="133.0" font-size="12" fill="#cbd5e1">FastAPI</text>
<rect x="150" y="114" width="80" height="30" rx="15.0" fill="#ffffff" fill-opacity=".045" stroke="#ffffff" stroke-opacity=".11"/>
<circle cx="169" cy="129.0" r="3.5" fill="#61dafb"/>
<text x="181" y="133.0" font-size="12" fill="#cbd5e1">React</text>
<rect x="240" y="114" width="94" height="30" rx="15.0" fill="#ffffff" fill-opacity=".045" stroke="#ffffff" stroke-opacity=".11"/>
<circle cx="259" cy="129.0" r="3.5" fill="#5fba47"/>
<text x="271" y="133.0" font-size="12" fill="#cbd5e1">Node.js</text>
<rect x="344" y="114" width="115" height="30" rx="15.0" fill="#ffffff" fill-opacity=".045" stroke="#ffffff" stroke-opacity=".11"/>
<circle cx="363" cy="129.0" r="3.5" fill="#cfd6df"/>
<text x="375" y="133.0" font-size="12" fill="#cbd5e1">Express.js</text>
<rect x="468" y="114" width="129" height="30" rx="15.0" fill="#ffffff" fill-opacity=".045" stroke="#ffffff" stroke-opacity=".11"/>
<circle cx="487" cy="129.0" r="3.5" fill="#f7931e"/>
<text x="499" y="133.0" font-size="12" fill="#cbd5e1">scikit-learn</text>
<rect x="608" y="114" width="87" height="30" rx="15.0" fill="#ffffff" fill-opacity=".045" stroke="#ffffff" stroke-opacity=".11"/>
<circle cx="627" cy="129.0" r="3.5" fill="#8b8ff5"/>
<text x="639" y="133.0" font-size="12" fill="#cbd5e1">Pandas</text>
<rect x="704" y="114" width="80" height="30" rx="15.0" fill="#ffffff" fill-opacity=".045" stroke="#ffffff" stroke-opacity=".11"/>
<circle cx="723" cy="129.0" r="3.5" fill="#4dabcf"/>
<text x="735" y="133.0" font-size="12" fill="#cbd5e1">NumPy</text>
<rect x="222" y="156" width="94" height="30" rx="15.0" fill="#ffffff" fill-opacity=".045" stroke="#ffffff" stroke-opacity=".11"/>
<circle cx="241" cy="171.0" r="3.5" fill="#5fbf5f"/>
<text x="253" y="175.0" font-size="12" fill="#cbd5e1">MongoDB</text>
<rect x="326" y="156" width="80" height="30" rx="15.0" fill="#ffffff" fill-opacity=".045" stroke="#ffffff" stroke-opacity=".11"/>
<circle cx="345" cy="171.0" r="3.5" fill="#4f95c9"/>
<text x="357" y="175.0" font-size="12" fill="#cbd5e1">MySQL</text>
<rect x="416" y="156" width="115" height="30" rx="15.0" fill="#ffffff" fill-opacity=".045" stroke="#ffffff" stroke-opacity=".11"/>
<circle cx="435" cy="171.0" r="3.5" fill="#6f8fe6"/>
<text x="447" y="175.0" font-size="12" fill="#cbd5e1">PostgreSQL</text>
<rect x="542" y="156" width="66" height="30" rx="15.0" fill="#ffffff" fill-opacity=".045" stroke="#ffffff" stroke-opacity=".11"/>
<circle cx="561" cy="171.0" r="3.5" fill="#ff9900"/>
<text x="573" y="175.0" font-size="12" fill="#cbd5e1">AWS</text>
<rect x="216" y="198" width="66" height="30" rx="15.0" fill="#ffffff" fill-opacity=".045" stroke="#ffffff" stroke-opacity=".11"/>
<circle cx="235" cy="213.0" r="3.5" fill="#f05032"/>
<text x="247" y="217.0" font-size="12" fill="#cbd5e1">Git</text>
<rect x="292" y="198" width="80" height="30" rx="15.0" fill="#ffffff" fill-opacity=".045" stroke="#ffffff" stroke-opacity=".11"/>
<circle cx="311" cy="213.0" r="3.5" fill="#fcc624"/>
<text x="323" y="217.0" font-size="12" fill="#cbd5e1">Linux</text>
<rect x="382" y="198" width="94" height="30" rx="15.0" fill="#ffffff" fill-opacity=".045" stroke="#ffffff" stroke-opacity=".11"/>
<circle cx="401" cy="213.0" r="3.5" fill="#ff6c37"/>
<text x="413" y="217.0" font-size="12" fill="#cbd5e1">Postman</text>
<rect x="486" y="198" width="129" height="30" rx="15.0" fill="#ffffff" fill-opacity=".045" stroke="#ffffff" stroke-opacity=".11"/>
<circle cx="505" cy="213.0" r="3.5" fill="#d6336c"/>
<text x="517" y="217.0" font-size="12" fill="#cbd5e1">Raspberry Pi</text>
</svg>
